<svg xmlns="http://www.w3.org/2000/svg" viewBox="0 0 180 180" role="img" aria-label="Cash Grab Timer">
  <rect width="180" height="180" rx="40" fill="#111518"/>
  <circle cx="90" cy="90" r="62" fill="#d7b96f"/>
  <circle cx="90" cy="90" r="47" fill="#15191b"/>
  <path fill="#fff8e8" d="M97 46v15c11 2 20 9 26 19l-15 8c-5-7-11-11-20-11-6 0-10 1-14 4-3 3-5 6-5 10 0 5 2 8 6 10 3 2 10 5 19 7 12 3 21 7 26 13 6 6 8 13 8 23 0 10-3 19-10 25-6 7-15 11-27 12v15H75v-15c-15-2-26-10-34-24l15-9c6 11 15 16 27 16 7 0 13-1 17-5 4-3 6-7 6-12 0-4-2-8-6-11-4-2-11-5-21-7-11-3-20-7-25-12-5-6-8-13-8-22s4-17 10-23c7-6 15-10 25-12V46h16Z"/>
</svg>
