<svg xmlns="http://www.w3.org/2000/svg" viewBox="0 0 512 512" role="img" aria-label="Cash Grab Timer">
  <rect width="512" height="512" rx="112" fill="#111518"/>
  <circle cx="256" cy="256" r="174" fill="#d7b96f"/>
  <circle cx="256" cy="256" r="132" fill="#15191b"/>
  <path fill="#fff8e8" d="M276 133v42c32 6 56 24 73 52l-42 24c-13-20-31-31-55-31-16 0-29 4-38 11-9 7-14 16-14 27 0 12 5 21 15 27 10 7 28 13 53 19 34 8 58 20 73 36 16 16 24 38 24 64 0 29-9 53-28 71-18 18-43 29-75 34v43h-48v-43c-42-7-74-30-96-67l43-25c16 29 41 44 75 44 20 0 35-4 46-13 11-9 16-20 16-34 0-13-5-23-16-30-10-7-29-14-57-21-32-8-56-19-71-34-15-15-22-36-22-62 0-26 9-48 27-66 18-18 41-28 70-33v-42h48Z"/>
</svg>
